<?xml version="1.0" encoding="utf-8"?>
<!-- Generator: Adobe Illustrator 17.1.0, SVG Export Plug-In . SVG Version: 6.00 Build 0)  -->
<!DOCTYPE svg PUBLIC "-//W3C//DTD SVG 1.1//EN" "http://www.w3.org/Graphics/SVG/1.1/DTD/svg11.dtd">
<svg version="1.1" id="Layer_1" xmlns="http://www.w3.org/2000/svg" xmlns:xlink="http://www.w3.org/1999/xlink" x="0px" y="0px"
	 viewBox="0.1 261.6 611.7 268.8" enable-background="new 0.1 261.6 611.7 268.8" xml:space="preserve">
<g id="XMLID_2_">
	<g id="XMLID_3_">
		<path id="XMLID_6_" fill="#FFFFFF" d="M62.9,411.7c0,11.5-9.1,20.9-20.6,21.3H31.7c-12,0-21.7-9.7-21.7-21.3V283
			c0-11.8,9.7-21.3,21.7-21.3h10.6c11.5,0.3,20.6,9.8,20.6,21.3v25.6c0,5.5-2.5,8.1-4.6,9.1l-12.4,5.8v-37.6c0-5.1-4.1-9.1-9.4-9.1
			c-5.1,0-9.1,4.1-9.1,9.1v122.7c0,5.2,4.1,9.4,9.1,9.4c5.2,0,9.4-4.1,9.4-9.4V386c0-5.5,2.5-8.1,4.6-9.4c1.4-0.8,8.1-3.5,12.4-5.5
			V411.7L62.9,411.7z"/>
		<path id="XMLID_8_" fill="#FFFFFF" d="M214.9,414.3c-2,4.3-4.8,11.1-5.5,12.4c-1.2,2.2-3.8,4.6-9.4,4.6h-41.3v-168h12
			c2.9,0.3,5.2,2.5,5.2,5.2v145.7H214.9z"/>
		<path id="XMLID_10_" fill="#FFFFFF" d="M301.9,263.3c5.1,0,6.9,3.8,6.9,6.8v161.4h-12.3c-4.1,0-4.8-2.5-5.1-3.5V263.3H301.9z"/>
		<path id="XMLID_12_" fill="#FFFFFF" d="M459.9,431.3h-8c-9.4,0-10.8-7.4-11.5-10.8l-18.4-83.1v93.8h-17.4v-168h8
			c9.7,0,11.2,4.6,12.3,9.4l17.8,87.4v-96.8H460v168H459.9z"/>
		<path id="XMLID_15_" fill="#FFFFFF" d="M593.8,431.3l-23-75.1v75.1h-17V269.8c0-5.2,3.5-6.3,5.5-6.5h11.5v61.3l21.2-60.7h18
			l-27,75.6l29,92h-18.1V431.3z"/>
	</g>
	<path id="XMLID_43_" fill="#FFFFFF" d="M4.5,518.2c0,0,2.3-0.6,6.8-1.7c4.5-1.2,10.8-2.6,19-4.5c4.1-0.9,8.6-1.8,13.7-2.9
		c4.9-1.1,10.3-2,16-3.1c2.8-0.6,5.8-1.1,8.9-1.7c3.1-0.5,6.1-1.1,9.4-1.5c6.5-1.1,13.2-2.3,20.3-3.4c14.1-2,29.5-4.5,45.8-6.1
		c8.1-0.9,16.4-2.2,25-2.9s17.4-1.7,26.3-2.5c8.9-0.9,18-1.5,27.2-2.2s18.4-1.4,27.8-2c9.4-0.5,18.9-0.9,28.3-1.4
		c9.5-0.3,19-1.1,28.6-1.1c9.5-0.2,19-0.3,28.6-0.6c9.5-0.2,18.9-0.5,28.3-0.3c18.7,0.2,37.2,0.2,55.1,0.5c17.8,0.6,35,1.2,51.4,1.7
		c16.4,0.8,31.8,1.8,46.1,2.6c7.1,0.5,14,0.9,20.4,1.2c6.5,0.3,12.6,1.1,18.4,1.5c11.5,1.1,21.7,2,29.9,2.6
		c16.6,1.4,26.1,2.3,26.1,2.3s-9.5-0.6-26.1-1.7c-8.3-0.6-18.4-1.2-29.9-2c-5.8-0.3-11.8-0.9-18.4-1.1c-6.5-0.3-13.4-0.6-20.4-0.8
		c-14.3-0.5-29.6-1.4-46.1-1.7c-16.4-0.2-33.5-0.5-51.3-0.8c-17.8,0-36.2,0.5-55,0.6c-9.4,0-18.7,0.6-28.3,0.9
		c-9.4,0.3-18.9,0.8-28.4,1.1c-9.5,0.3-18.9,1.2-28.4,1.7c-9.4,0.6-18.9,1.2-28.1,1.8c-9.4,0.8-18.6,1.7-27.6,2.5
		s-18.1,1.5-26.9,2.8c-8.8,1.1-17.5,2-26.1,3.1c-8.4,1.1-16.7,2.3-24.9,3.4c-16.1,2.2-31.3,4.8-45.3,7.1c-6.9,1.2-13.7,2.5-20,3.7
		c-3.2,0.6-6.3,1.2-9.4,1.7c-3.1,0.6-6,1.2-8.8,1.8c-5.7,1.2-10.9,2.3-15.8,3.4c-4.9,1.1-9.4,2.2-13.4,3.1c-8,2-14.3,3.5-18.4,4.8
		c-4.1,1.1-6.5,1.8-6.5,1.8c-3.2,1.1-6.8-0.8-7.8-4.1C-0.8,522.7,1,519.2,4.5,518.2L4.5,518.2L4.5,518.2z"/>
</g>
</svg>
